<?xml version="1.0" encoding="utf-8"?>
<svg viewBox="0 0 37 10" xmlns="http://www.w3.org/2000/svg">
  <path d="M 3.551 9.538 L 3.361 1.338 C 2.788 1.558 2.348 1.895 2.041 2.348 C 1.728 2.795 1.571 3.348 1.571 4.008 C 1.571 4.301 1.598 4.508 1.651 4.628 C 1.711 4.741 1.741 4.805 1.741 4.818 C 1.308 4.818 0.984 4.728 0.771 4.548 C 0.558 4.368 0.451 4.071 0.451 3.658 C 0.451 3.145 0.661 2.648 1.081 2.168 C 1.501 1.681 2.041 1.288 2.701 0.988 C 3.354 0.688 4.008 0.538 4.661 0.538 C 4.774 0.538 4.934 0.545 5.141 0.558 L 5.251 7.938 L 7.771 0.598 L 9.301 0.598 L 9.401 7.938 L 11.921 0.598 L 12.761 0.598 L 9.431 9.538 L 7.701 9.538 L 7.561 3.428 L 5.281 9.538 L 3.551 9.538 ZM 13.632 9.608 C 13.039 9.608 12.579 9.455 12.252 9.148 C 11.919 8.841 11.752 8.358 11.752 7.698 C 11.752 7.151 11.862 6.545 12.082 5.878 C 12.296 5.211 12.646 4.638 13.132 4.158 C 13.626 3.671 14.246 3.428 14.992 3.428 C 15.872 3.428 16.312 3.811 16.312 4.578 C 16.312 5.031 16.186 5.445 15.932 5.818 C 15.679 6.191 15.339 6.495 14.912 6.728 C 14.486 6.955 14.032 7.085 13.552 7.118 C 13.539 7.358 13.532 7.518 13.532 7.598 C 13.532 7.985 13.599 8.248 13.732 8.388 C 13.872 8.528 14.092 8.598 14.392 8.598 C 14.826 8.598 15.196 8.498 15.502 8.298 C 15.816 8.098 16.156 7.795 16.522 7.388 L 16.932 7.388 C 16.039 8.868 14.939 9.608 13.632 9.608 Z M 13.652 6.538 C 13.946 6.525 14.229 6.421 14.502 6.228 C 14.769 6.035 14.982 5.791 15.142 5.498 C 15.309 5.198 15.392 4.885 15.392 4.558 C 15.392 4.231 15.292 4.068 15.092 4.068 C 14.806 4.068 14.522 4.318 14.242 4.818 C 13.969 5.325 13.772 5.898 13.652 6.538 ZM 18.242 9.608 C 17.648 9.608 17.188 9.455 16.862 9.148 C 16.528 8.841 16.362 8.358 16.362 7.698 C 16.362 7.151 16.472 6.545 16.692 5.878 C 16.905 5.211 17.255 4.638 17.742 4.158 C 18.235 3.671 18.855 3.428 19.602 3.428 C 20.482 3.428 20.922 3.811 20.922 4.578 C 20.922 5.031 20.795 5.445 20.542 5.818 C 20.288 6.191 19.948 6.495 19.522 6.728 C 19.095 6.955 18.642 7.085 18.162 7.118 C 18.148 7.358 18.142 7.518 18.142 7.598 C 18.142 7.985 18.208 8.248 18.342 8.388 C 18.482 8.528 18.702 8.598 19.002 8.598 C 19.435 8.598 19.805 8.498 20.112 8.298 C 20.425 8.098 20.765 7.795 21.132 7.388 L 21.542 7.388 C 20.648 8.868 19.548 9.608 18.242 9.608 Z M 18.262 6.538 C 18.555 6.525 18.838 6.421 19.112 6.228 C 19.378 6.035 19.592 5.791 19.752 5.498 C 19.918 5.198 20.002 4.885 20.002 4.558 C 20.002 4.231 19.902 4.068 19.702 4.068 C 19.415 4.068 19.132 4.318 18.852 4.818 C 18.578 5.325 18.382 5.898 18.262 6.538 ZM 25.641 9.608 C 25.148 9.608 24.771 9.491 24.511 9.258 C 24.258 9.018 24.131 8.678 24.131 8.238 C 24.131 8.051 24.154 7.845 24.201 7.618 L 24.301 7.148 C 24.334 7.015 24.351 6.868 24.351 6.708 C 24.351 6.321 24.204 6.128 23.911 6.128 C 23.784 6.128 23.651 6.165 23.511 6.238 C 23.371 6.311 23.211 6.425 23.031 6.578 L 22.401 9.538 L 20.671 9.538 L 22.411 1.378 L 24.191 1.138 L 23.291 5.358 L 25.611 3.538 L 26.791 3.538 L 24.391 5.208 C 24.511 5.175 24.644 5.158 24.791 5.158 C 25.224 5.158 25.551 5.291 25.771 5.558 C 25.998 5.818 26.111 6.151 26.111 6.558 C 26.111 6.731 26.094 6.885 26.061 7.018 L 25.931 7.618 C 25.891 7.765 25.871 7.891 25.871 7.998 C 25.871 8.298 26.028 8.448 26.341 8.448 C 26.581 8.448 26.771 8.361 26.911 8.188 C 27.058 8.015 27.204 7.748 27.351 7.388 L 27.851 7.388 C 27.358 8.868 26.621 9.608 25.641 9.608 ZM 29.07 9.608 C 28.476 9.608 28.016 9.455 27.69 9.148 C 27.356 8.841 27.19 8.358 27.19 7.698 C 27.19 7.151 27.3 6.545 27.52 5.878 C 27.733 5.211 28.083 4.638 28.57 4.158 C 29.063 3.671 29.683 3.428 30.43 3.428 C 31.31 3.428 31.75 3.811 31.75 4.578 C 31.75 5.031 31.623 5.445 31.37 5.818 C 31.116 6.191 30.776 6.495 30.35 6.728 C 29.923 6.955 29.47 7.085 28.99 7.118 C 28.976 7.358 28.97 7.518 28.97 7.598 C 28.97 7.985 29.036 8.248 29.17 8.388 C 29.31 8.528 29.53 8.598 29.83 8.598 C 30.263 8.598 30.633 8.498 30.94 8.298 C 31.253 8.098 31.593 7.795 31.96 7.388 L 32.37 7.388 C 31.476 8.868 30.376 9.608 29.07 9.608 Z M 29.09 6.538 C 29.383 6.525 29.666 6.421 29.94 6.228 C 30.206 6.035 30.42 5.791 30.58 5.498 C 30.746 5.198 30.83 4.885 30.83 4.558 C 30.83 4.231 30.73 4.068 30.53 4.068 C 30.243 4.068 29.96 4.318 29.68 4.818 C 29.406 5.325 29.21 5.898 29.09 6.538 ZM 31.499 9.538 L 32.779 3.538 L 34.499 3.538 L 34.349 4.278 C 34.622 4.038 34.869 3.855 35.089 3.728 C 35.309 3.601 35.546 3.538 35.799 3.538 C 36.052 3.538 36.256 3.625 36.409 3.798 C 36.556 3.978 36.629 4.191 36.629 4.438 C 36.629 4.671 36.552 4.875 36.399 5.048 C 36.246 5.228 36.032 5.318 35.759 5.318 C 35.586 5.318 35.469 5.275 35.409 5.188 C 35.349 5.101 35.302 4.978 35.269 4.818 C 35.249 4.718 35.226 4.645 35.199 4.598 C 35.172 4.545 35.129 4.518 35.069 4.518 C 34.902 4.518 34.759 4.555 34.639 4.628 C 34.526 4.695 34.376 4.811 34.189 4.978 L 33.229 9.538 L 31.499 9.538 Z" style="fill:rgb(221, 107, 32); stroke:rgb(221, 107, 32); stroke-width:0.1px;"/>
</svg>
