<?xml version="1.0" encoding="utf-8"?>
<svg viewBox="0 0 14 10" xmlns="http://www.w3.org/2000/svg">
  <path d="M 3.87 9.538 L 3.68 1.338 C 3.107 1.558 2.667 1.895 2.36 2.348 C 2.047 2.795 1.89 3.348 1.89 4.008 C 1.89 4.301 1.917 4.508 1.97 4.628 C 2.03 4.741 2.06 4.805 2.06 4.818 C 1.627 4.818 1.303 4.728 1.09 4.548 C 0.877 4.368 0.77 4.071 0.77 3.658 C 0.77 3.145 0.98 2.648 1.4 2.168 C 1.82 1.681 2.36 1.288 3.02 0.988 C 3.673 0.688 4.327 0.538 4.98 0.538 C 5.093 0.538 5.253 0.545 5.46 0.558 L 5.57 7.938 L 8.09 0.598 L 9.62 0.598 L 9.72 7.938 L 12.24 0.598 L 13.08 0.598 L 9.75 9.538 L 8.02 9.538 L 7.88 3.428 L 5.6 9.538 L 3.87 9.538 Z" style="fill:rgb(221, 107, 32);stroke:rgb(221, 107, 32);stroke-width:0.1px;"/>
</svg>
